<?xml version="1.0" standalone="no"?>
<!DOCTYPE svg PUBLIC "-//W3C//DTD SVG 20010904//EN"
 "http://www.w3.org/TR/2001/REC-SVG-20010904/DTD/svg10.dtd">
<svg version="1.0" xmlns="http://www.w3.org/2000/svg"
 width="2000.000000pt" height="2000.000000pt" viewBox="0 0 2000.000000 2000.000000"
 preserveAspectRatio="xMidYMid meet">

<g transform="translate(0.000000,2000.000000) scale(0.100000,-0.100000)"
fill="#000000" stroke="none">
<path d="M5722 11398 c-9 -9 -12 -273 -12 -1125 0 -1049 1 -1113 18 -1122 23
-12 561 -4 576 9 10 7 12 273 11 1120 -1 962 -3 1112 -15 1120 -23 15 -563 13
-578 -2z"/>
<path d="M4920 10870 c-5 -3 -10 -512 -13 -1132 -4 -1050 -3 -1127 12 -1131
20 -5 572 1 578 6 4 5 5 2248 1 2252 -6 6 -570 10 -578 5z"/>
<path d="M12190 10489 l0 -312 -49 46 c-91 85 -207 127 -351 127 -251 -1 -448
-131 -537 -356 -25 -64 -27 -80 -28 -219 0 -133 3 -157 24 -215 85 -233 285
-369 541 -370 148 0 261 42 357 132 l53 51 0 -87 0 -86 100 0 100 0 0 800 0
800 -105 0 -105 0 0 -311z m-218 -351 c79 -36 142 -98 180 -176 28 -57 33 -78
36 -163 5 -121 -18 -209 -76 -284 -78 -103 -187 -150 -328 -143 -190 10 -326
138 -353 334 -30 208 76 389 262 450 69 23 210 14 279 -18z"/>
<path d="M7350 9955 l0 -755 105 0 105 0 0 305 0 305 380 0 381 0 -3 93 -3 92
-375 2 -375 3 -3 260 -2 260 425 0 425 0 0 95 0 95 -530 0 -530 0 0 -755z"/>
<path d="M14130 9968 c-184 -407 -336 -747 -338 -754 -3 -11 18 -14 105 -14
l108 0 83 190 84 190 401 -2 401 -3 81 -185 81 -185 112 -3 c62 -1 112 0 112
2 0 5 -629 1393 -666 1469 l-18 37 -105 0 -106 -1 -335 -741z m604 153 c86
-195 156 -358 156 -363 0 -4 -144 -8 -320 -8 -176 0 -320 2 -320 4 0 5 299
685 312 709 5 10 11 17 13 15 1 -1 73 -162 159 -357z"/>
<path d="M15590 9955 l0 -755 105 0 105 0 0 755 0 755 -105 0 -105 0 0 -755z"/>
<path d="M4113 10355 c-14 -10 -16 -95 -18 -806 -1 -437 0 -826 3 -865 l5 -71
251 -5 c138 -2 270 -2 294 0 l42 4 0 868 c0 519 -4 871 -9 875 -5 3 -132 7
-281 8 -193 3 -276 0 -287 -8z"/>
<path d="M9003 10336 c-95 -23 -183 -74 -258 -150 -113 -113 -165 -245 -165
-416 0 -260 135 -454 380 -546 70 -26 86 -28 225 -28 121 -1 161 3 205 18 78
26 158 70 210 115 l44 38 -54 67 c-29 36 -55 66 -57 66 -1 0 -26 -18 -55 -40
-29 -22 -78 -50 -108 -61 -70 -27 -208 -36 -281 -19 -128 30 -239 120 -278
226 -39 104 -86 94 438 94 l459 0 5 29 c9 44 -10 185 -33 257 -57 170 -207
308 -381 349 -77 18 -224 18 -296 1z m308 -192 c98 -44 179 -149 199 -256 l7
-38 -363 0 -364 0 0 25 c0 45 41 134 85 182 48 55 123 99 187 113 71 15 183 3
249 -26z"/>
<path d="M10323 10336 c-147 -36 -299 -157 -361 -287 -130 -272 -53 -600 175
-752 136 -90 332 -128 509 -98 83 15 212 75 274 129 l45 39 -40 48 c-22 26
-47 56 -56 67 -15 20 -17 19 -70 -21 -90 -69 -145 -85 -285 -86 -119 0 -121 0
-196 38 -92 45 -157 113 -187 193 -39 104 -86 94 438 94 l459 0 5 29 c9 43
-10 189 -33 255 -60 175 -206 309 -381 351 -77 18 -224 18 -296 1z m302 -190
c100 -45 172 -132 201 -238 7 -29 14 -54 14 -55 0 -2 -165 -3 -366 -3 l-367 0
6 41 c17 125 139 251 270 279 68 15 183 3 242 -24z"/>
<path d="M12678 10303 c227 -293 393 -516 389 -526 -3 -7 -99 -134 -214 -283
-115 -148 -213 -276 -217 -282 -5 -9 21 -12 106 -12 l114 0 164 215 c90 119
167 214 171 213 4 -2 74 -91 154 -198 81 -107 155 -203 164 -213 15 -15 32
-17 129 -15 l112 3 -225 289 c-142 183 -222 293 -216 300 124 159 411 536 411
540 0 3 -49 6 -109 6 l-108 0 -156 -205 -155 -205 -157 205 -156 205 -115 0
-116 0 30 -37z"/>
</g>
</svg>
