<svg xmlns="http://www.w3.org/2000/svg" version="1.0" preserveAspectRatio="xMidYMid meet" viewBox="893.54 860 222.06 280">

<g transform="translate(0.000000,2000.000000) scale(0.100000,-0.100000)" fill="#000000" stroke="none">
<path d="M10555 11388 c-3 -7 -4 -515 -3 -1128 l3 -1115 287 -3 c236 -2 289 0 300 12 13 12 14 177 14 1118 -1 606 -5 1109 -9 1116 -6 9 -77 12 -298 12 -222 0 -291 -3 -294 -12z"/>
<path d="M9756 10862 c-2 -4 -6 -514 -8 -1132 l-3 -1125 298 -3 297 -2 0 262 c1 335 1 1816 0 1926 l0 82 -289 0 c-160 0 -292 -3 -295 -8z"/>
<path d="M8943 10343 c-12 -27 -9 -1721 3 -1733 7 -7 114 -9 295 -8 l284 3 0 875 0 875 -287 3 c-266 2 -288 1 -295 -15z"/>
</g>
</svg>